<svg version="1.1" id="Layer_1" xmlns="http://www.w3.org/2000/svg"
	xmlns:xlink="http://www.w3.org/1999/xlink" x="0px" y="0px"
	width="100%" viewBox="0 0 500 500" enable-background="new 0 0 500 500" xml:space="preserve">
<path fill="#434A53" opacity="1.000000" stroke="none" 
	d="
M385.996887,226.996307 
	C385.599976,227.287537 385.203033,227.578735 384.346832,228.116867 
	C383.595276,228.583145 383.302979,228.802505 383.010681,229.021881 
	C380.893616,230.617828 378.776581,232.213806 376.183075,233.769806 
	C375.132690,232.815811 374.558746,231.901779 374.113525,230.719208 
	C374.460785,229.896439 374.679352,229.342194 374.899292,228.832565 
	C374.900696,228.877167 374.811493,228.879486 375.105347,228.784439 
	C375.881592,228.310364 376.363953,227.931335 376.760376,227.598145 
	C376.674408,227.643997 376.583344,227.471756 376.924774,227.515289 
	C380.810577,227.167175 379.134369,224.802628 379.281372,222.748779 
	C379.992859,222.148331 380.406555,221.813614 381.091187,221.650208 
	C382.531128,221.200394 383.700104,220.579254 385.060242,219.646790 
	C384.853729,217.243729 384.456116,215.151978 383.888611,212.760132 
	C383.103699,211.027893 382.488647,209.595764 381.841675,207.835327 
	C381.175659,206.684708 380.541565,205.862381 379.939514,205.035782 
	C379.971558,205.031509 379.937042,205.086212 379.937988,204.718658 
	C378.982239,202.568665 378.025513,200.786194 376.974182,198.828918 
	C376.879517,198.654083 376.889008,198.256561 376.866669,197.927917 
	C376.278687,196.725861 375.713043,195.852432 375.032654,194.794586 
	C374.771301,194.351196 374.701355,194.072952 374.745087,193.344940 
	C372.758820,188.979736 370.735504,185.045044 368.766052,181.119324 
	C368.819916,181.128296 368.801270,181.235916 368.794250,180.910706 
	C368.248749,179.721985 367.710266,178.858490 367.089417,177.771179 
	C367.007050,177.547348 366.953888,177.073334 366.951050,176.690826 
	C365.912109,174.537125 364.876007,172.765900 363.781128,170.872894 
	C363.722351,170.751114 363.965698,170.633041 363.825439,170.362366 
	C363.487030,169.735153 363.288910,169.378616 362.994934,168.852142 
	C362.899048,168.682205 362.865631,168.293411 362.767059,167.985046 
	C362.299500,167.142532 361.930511,166.608353 361.670959,166.095764 
	C361.780396,166.117325 361.736511,166.336044 361.679596,166.022308 
	C361.347076,165.138138 361.071472,164.567719 360.858154,164.027588 
	C360.920441,164.057877 360.859589,164.182266 360.814789,163.847321 
	C360.141235,162.357742 359.512482,161.203094 358.828308,160.049683 
	C358.772888,160.050934 358.769806,159.940109 358.786865,159.572754 
	C357.076050,155.913193 355.348145,152.620987 353.702820,149.239563 
	C353.785370,149.150360 353.631500,149.320908 353.664612,148.944214 
	C352.507629,146.432449 351.317505,144.297394 349.939056,141.845276 
	C347.682281,137.301483 345.613831,133.074768 343.477844,128.526611 
	C342.937897,127.502403 342.465485,126.799637 342.008118,126.056236 
	C342.023193,126.015610 341.941986,125.985374 341.915222,125.648521 
	C341.627960,124.965622 341.367462,124.619576 341.166595,124.258316 
	C341.226227,124.243103 341.195953,124.123802 341.174225,123.810364 
	C340.783417,123.029259 340.414307,122.561584 340.059082,122.029167 
	C340.072968,121.964424 339.943542,121.936455 339.930389,121.611229 
	C339.293915,120.180786 338.670563,119.075577 338.034241,117.971542 
	C338.021271,117.972733 338.033752,117.948921 338.012695,117.625183 
	C337.398376,116.218918 336.805145,115.136391 336.130157,113.774338 
	C335.962158,113.320839 335.875946,113.146873 335.791168,112.658455 
	C335.240601,111.489166 334.688660,110.634331 334.097534,109.577988 
	C334.058350,109.376488 333.848877,109.023384 333.861816,108.748932 
	C333.650696,108.200645 333.426666,107.926811 333.169250,107.766785 
	C333.135834,107.880585 333.363586,107.946922 333.327484,107.621185 
	C332.918304,106.799217 332.545227,106.302986 332.122498,105.590057 
	C332.072876,105.373367 331.862213,104.981842 331.879944,104.693657 
	C331.602020,103.922874 331.306396,103.440277 330.994385,102.980110 
	C330.978058,103.002548 331.032593,103.012932 331.018677,102.748032 
	C330.649445,102.114525 330.294098,101.745926 329.977661,101.279114 
	C330.016602,101.180908 329.876282,101.022949 329.900696,100.674156 
	C328.979767,98.506943 328.034424,96.688530 327.065063,94.917404 
	C327.041046,94.964684 327.135681,95.012573 327.082703,94.712868 
	C326.767822,94.121315 326.505920,93.829468 326.226074,93.367737 
	C326.208130,93.197838 325.986389,92.937859 326.005798,92.610718 
	C325.717346,91.734085 325.409424,91.184593 325.028137,90.357819 
	C324.598633,89.403641 324.242554,88.726746 323.939148,87.808167 
	C323.918579,87.239487 323.916504,86.912041 323.814697,86.315231 
	C323.406708,85.694664 323.169586,85.343033 322.950653,85.037689 
	C322.968842,85.083992 322.876312,85.120499 322.820984,84.835091 
	C322.535645,84.020828 322.305603,83.491974 322.059265,82.574188 
	C322.049194,78.833839 320.870331,76.901894 317.034546,77.541283 
	C315.821777,77.743431 314.485687,77.205414 312.940063,76.749924 
	C310.792114,76.821365 308.730377,76.760582 307.055450,77.535683 
	C286.378204,87.104645 265.769592,96.821663 245.117416,106.445091 
	C232.996613,112.093102 220.829758,117.642242 208.250580,123.210960 
	C203.890427,125.203224 199.963318,127.220367 196.050781,129.178238 
	C196.065384,129.118958 196.183838,129.148544 195.834167,129.158554 
	C194.341568,129.830261 193.198639,130.491959 192.059723,131.120377 
	C192.063736,131.087082 192.128098,131.105957 191.732422,131.101562 
	C187.209152,132.705444 183.087677,134.329697 178.952377,135.917908 
	C173.869003,137.870239 169.623749,140.576019 168.825958,146.887695 
	C168.345047,147.418030 168.080994,147.730072 167.577545,148.190094 
	C167.842300,150.197861 168.346420,152.057678 168.951263,154.313507 
	C170.669235,162.483047 172.369858,170.240356 173.887802,178.033234 
	C178.096588,199.640518 182.119003,221.284622 186.419708,242.873398 
	C191.891083,270.338623 197.551865,297.766174 203.176056,325.200745 
	C203.542068,326.986115 204.292969,328.692566 204.864838,330.435730 
	C205.258072,330.423859 205.651321,330.412018 206.044556,330.400177 
	C211.328400,317.861420 216.612244,305.322662 221.912476,293.200378 
	C221.652084,296.750397 221.375336,299.883881 221.065231,303.356079 
	C220.904633,304.127655 220.777374,304.560577 220.327698,305.086548 
	C218.769791,308.356232 217.534302,311.532867 216.460709,314.829285 
	C216.622604,314.949066 216.566101,315.347809 216.268219,315.272156 
	C215.016068,317.562073 214.061798,319.927643 213.092590,322.483612 
	C213.077652,322.673981 212.897430,323.010712 212.652603,323.233643 
	C211.969315,324.672577 211.530838,325.888611 211.072784,327.076874 
	C211.053192,327.049103 211.120972,327.054230 210.860443,327.227448 
	C210.088776,328.929474 209.577621,330.458252 209.080872,332.341919 
	C209.059509,332.930786 209.023773,333.164825 209.086731,333.699829 
	C212.675034,336.715820 214.944946,336.235718 218.076981,332.064636 
	C218.124451,331.999176 218.265182,332.078918 218.595032,332.044403 
	C219.922318,331.283936 220.919739,330.557953 221.915756,329.866394 
	C221.914352,329.900787 221.845993,329.892395 222.179916,329.859467 
	C223.311081,329.155701 224.108322,328.484894 224.915039,327.841614 
	C224.924515,327.869202 224.879608,327.827515 225.283752,327.844116 
	C227.816406,327.578674 229.944931,327.296600 232.073456,327.014557 
	C231.239777,328.245911 230.406097,329.477234 229.120117,330.973419 
	C228.459213,331.400818 228.260437,331.574646 228.071533,331.759735 
	C225.777725,332.680420 223.483917,333.601105 220.741882,334.854401 
	C219.553207,335.649719 218.812759,336.112457 218.072296,336.575165 
	C217.286194,337.017242 216.500092,337.459320 215.105255,338.018250 
	C214.023285,338.341583 213.550034,338.548065 213.076782,338.754517 
	C212.581909,339.070282 212.087036,339.386047 211.103638,339.941833 
	C210.142197,340.921692 209.669312,341.661469 209.196411,342.401245 
	C210.967529,349.804993 206.710480,355.861450 204.217514,362.087311 
	C201.257614,369.479218 197.431168,376.669312 193.001205,383.291931 
	C186.999222,392.264618 179.086853,399.627289 170.258545,405.906158 
	C161.608414,412.058289 152.399536,417.108063 142.011185,419.692444 
	C139.777542,420.248138 137.413498,420.998413 135.218445,420.738617 
	C133.750153,420.564880 131.766464,419.016846 131.273422,417.634460 
	C130.474136,415.393341 131.209274,413.547394 134.167084,412.451660 
	C143.110565,409.138519 152.811996,406.676147 160.453171,401.350128 
	C169.668106,394.927246 179.650146,388.590271 184.996124,377.691101 
	C186.673584,374.271149 190.230515,371.749573 191.796082,368.303009 
	C195.246017,360.708008 198.008987,352.798584 200.987183,344.992615 
	C202.810577,340.213409 201.603821,336.382538 199.280807,331.572449 
	C196.047440,324.877350 195.492767,316.869049 193.921234,309.395569 
	C191.760468,299.120087 189.617294,288.838806 187.656326,278.523956 
	C185.297852,266.118134 183.311630,253.639801 180.830307,241.259781 
	C179.256714,233.408722 176.914673,225.714310 175.216873,217.884674 
	C173.901733,211.819733 173.062363,205.652069 171.990311,199.533798 
	C171.094528,194.421570 170.096832,189.326202 169.269409,184.203171 
	C167.292923,171.965942 165.445312,159.707748 163.432022,147.476730 
	C162.565475,142.212372 165.355103,138.545685 169.304169,136.475052 
	C179.781952,130.981186 190.610626,126.158859 201.272049,121.012100 
	C209.200867,117.184494 217.051605,113.194099 225.001465,109.411423 
	C232.481079,105.852478 240.043762,102.468063 247.572433,99.012383 
	C249.767105,98.005020 251.996140,97.069199 254.165543,96.010651 
	C265.679932,90.392235 277.108429,84.591362 288.712677,79.165962 
	C295.633728,75.930115 302.695282,72.885864 309.931488,70.466942 
	C315.894562,68.473602 322.451996,71.594963 325.204346,77.227455 
	C333.486908,94.176826 341.613098,111.202904 349.745026,128.225464 
	C355.769928,140.837341 361.708649,153.490417 368.035583,166.637741 
	C368.605225,167.439514 368.825012,167.728683 369.044830,168.017853 
	C369.937103,170.461136 370.829376,172.904419 371.983826,175.850311 
	C372.418365,176.559601 372.601227,176.756531 372.794617,176.943680 
	C373.184296,177.709610 373.574005,178.475540 374.114441,179.751129 
	C374.437958,180.499741 374.622528,180.729187 374.818909,180.949158 
	C375.516327,182.418671 376.213745,183.888184 377.077271,185.864044 
	C377.411285,186.570435 377.590210,186.760071 377.780182,186.939285 
	C378.119110,187.743530 378.458038,188.547760 378.854553,189.827179 
	C379.149933,190.860550 379.387787,191.418716 379.625641,191.976883 
	C380.427338,193.408218 381.229065,194.839554 382.147827,196.816223 
	C382.450439,197.576523 382.647949,197.779877 382.857452,197.971619 
	C382.857452,197.971619 382.961609,198.373947 383.156830,198.788086 
	C383.568390,199.470078 383.784698,199.737946 384.001038,200.005814 
	C383.989380,200.180054 383.977722,200.354279 384.108490,200.946594 
	C384.424835,201.568893 384.609680,201.762711 384.805481,201.946075 
	C385.164703,202.698624 385.523956,203.451202 385.998474,204.882706 
	C386.923065,206.694336 387.732361,207.827042 388.541656,208.959732 
	C388.893951,210.674606 389.246246,212.389465 389.522400,214.588074 
	C389.860260,215.375839 390.274261,215.679840 390.688263,215.983841 
	C389.958466,218.800430 389.228699,221.617020 388.023010,224.854568 
	C387.030396,225.849121 386.513641,226.422714 385.996887,226.996307 
z"/>
<path fill="#4B464D" opacity="1.000000" stroke="none" 
	d="
M373.984802,230.987747 
	C374.558746,231.901779 375.132690,232.815811 375.916870,233.980896 
	C362.195923,243.255554 348.222900,252.215332 334.343964,261.318573 
	C315.959442,273.376984 297.639099,285.533386 279.309326,297.675018 
	C267.105713,305.758636 254.933716,313.889923 242.444778,321.751038 
	C241.422562,320.328613 240.703140,319.155029 240.142853,317.685425 
	C268.319214,298.768860 296.305298,280.101105 324.366852,261.547516 
	C338.469757,252.223053 352.709839,243.106064 367.173706,233.799973 
	C367.958466,233.362534 368.457367,233.020370 368.986084,232.787216 
	C369.015839,232.896240 368.797760,232.955673 368.995850,232.798950 
	C369.442505,232.416214 369.691071,232.190216 369.942200,231.945038 
	C369.944733,231.925858 369.982788,231.932983 370.259216,231.833740 
	C371.014435,231.391388 371.493286,231.048279 371.920685,230.770203 
	C371.869232,230.835220 371.739502,230.731888 372.112549,230.788605 
	C372.985352,230.892776 373.485077,230.940262 373.984802,230.987747 
z"/>
<path fill="#484A4B" opacity="1.000000" stroke="none" 
	d="
M202.661560,436.004578 
	C191.847031,435.327118 181.477600,434.719696 171.123077,433.919403 
	C166.587265,433.568817 165.371323,430.995148 167.604370,426.642456 
	C172.978210,416.167511 178.665909,405.865234 187.178619,397.519196 
	C192.639648,392.165131 194.782806,392.840302 197.370010,399.864258 
	C200.929840,409.528717 204.718369,419.109894 208.490631,428.694611 
	C210.143326,432.893829 208.527695,435.181549 202.661560,436.004578 
M186.959763,404.945557 
	C186.959763,404.945557 186.919556,404.742584 186.412598,404.981842 
	C186.269989,405.317474 186.127365,405.653107 185.453751,406.402039 
	C181.579758,412.516846 177.705765,418.631683 173.256775,425.186371 
	C170.975784,427.906097 172.044693,429.379578 175.128006,429.857117 
	C177.415543,430.211395 179.745087,430.294556 182.783752,430.665344 
	C183.528976,430.652832 184.274216,430.640320 185.931030,430.857666 
	C191.527878,430.857666 197.124710,430.857666 203.364014,430.857666 
	C202.838913,428.976227 202.423370,427.487335 201.858444,425.462585 
	C201.614517,425.193726 201.370590,424.924835 201.148834,424.348236 
	C201.148834,424.348236 200.981735,424.088837 201.044662,423.326141 
	C200.037598,420.865540 199.030533,418.404938 197.995377,416.003387 
	C197.995377,416.003387 198.058243,416.021423 197.918701,415.366699 
	C197.647079,415.023285 197.375458,414.679840 197.213760,414.110107 
	C197.213760,414.110107 197.059341,413.911530 197.110321,413.268646 
	C196.746704,412.527039 196.383072,411.785461 196.043594,410.980377 
	C196.043594,410.980377 195.978516,410.960876 195.884659,410.307312 
	C195.619858,409.969788 195.355042,409.632294 195.238403,408.884460 
	C195.224884,408.584564 195.130173,408.313019 195.034149,407.416840 
	C194.757278,406.864349 194.480423,406.311890 194.116440,405.926086 
	C194.116440,405.926086 194.283325,406.012848 194.233139,405.240082 
	C193.898514,404.571625 193.563889,403.903137 193.371567,402.718384 
	C193.231873,402.205414 193.092178,401.692474 192.959137,400.597412 
	C191.906860,400.662964 190.854584,400.728546 189.788986,400.885284 
	C189.788986,400.885284 189.827820,400.805145 189.278305,401.124512 
	C188.746689,402.004852 188.215088,402.885193 187.839813,403.803925 
	C187.839813,403.803925 187.877441,403.647400 187.327789,403.922638 
	C187.137451,404.276947 186.947113,404.631226 186.959763,404.945557 
z"/>
<path fill="#3F4A53" opacity="1.000000" stroke="none" 
	d="
M211.248993,357.554810 
	C211.777039,356.431732 212.273102,355.733246 212.524368,354.955658 
	C214.982849,347.347900 217.133957,346.659180 223.544434,351.958984 
	C230.837860,357.988739 238.082016,364.096893 245.022751,370.521881 
	C246.890305,372.250671 248.702591,375.598145 244.966705,377.540436 
	C237.970352,381.177795 230.793777,384.479431 223.610931,387.741791 
	C220.757339,389.037842 217.751587,390.148560 214.699905,390.820465 
	C210.978088,391.639893 208.524612,390.439453 208.913956,385.917206 
	C209.716217,376.598602 210.381683,367.268219 211.248993,357.554810 
M213.963013,380.381531 
	C214.397659,385.289246 215.313370,385.896790 219.717621,384.185852 
	C221.098236,383.649536 222.480362,383.115540 223.846542,382.544006 
	C229.558395,380.154419 235.264450,377.750946 242.082077,374.886414 
	C233.443726,367.206757 225.706924,360.328583 217.970108,353.450409 
	C217.351944,353.661346 216.733795,353.872284 216.115631,354.083221 
	C215.399323,362.553375 214.683014,371.023499 213.963013,380.381531 
z"/>
<path fill="#4B464D" opacity="1.000000" stroke="none" 
	d="
M232.343918,326.913269 
	C229.944931,327.296600 227.816406,327.578674 225.450134,327.551697 
	C229.121140,324.803284 233.029877,322.363953 236.971237,320.266052 
	C237.608566,321.725159 238.213303,322.842773 238.818024,323.960388 
	C236.750153,324.910919 234.682266,325.861450 232.343918,326.913269 
z"/>
<path fill="#434A53" opacity="1.000000" stroke="none" 
	d="
M239.088379,323.799347 
	C238.213303,322.842773 237.608566,321.725159 236.983734,320.289673 
	C236.963623,319.971771 236.916138,319.949249 237.239655,319.909058 
	C238.370316,319.239594 239.177460,318.610291 239.992371,317.989563 
	C240.000107,317.998169 239.983719,317.981415 239.983719,317.981415 
	C240.703140,319.155029 241.422562,320.328613 242.094299,321.820129 
	C241.150650,322.638153 240.254700,323.138214 239.088379,323.799347 
z"/>
<path fill="#4B464D" opacity="1.000000" stroke="none" 
	d="
M388.327179,208.668381 
	C387.732361,207.827042 386.923065,206.694336 386.095978,205.181702 
	C386.756348,205.993530 387.434540,207.185272 388.327179,208.668381 
z"/>
<path fill="#4B464D" opacity="1.000000" stroke="none" 
	d="
M209.514191,342.301086 
	C209.669312,341.661469 210.142197,340.921692 210.844406,340.089417 
	C210.659790,340.731628 210.245865,341.466248 209.514191,342.301086 
z"/>
<path fill="#4B464D" opacity="1.000000" stroke="none" 
	d="
M218.348251,336.620422 
	C218.812759,336.112457 219.553207,335.649719 220.555878,335.106873 
	C220.086792,335.572998 219.355499,336.119324 218.348251,336.620422 
z"/>
<path fill="#4B464D" opacity="1.000000" stroke="none" 
	d="
M386.345459,227.004898 
	C386.513641,226.422714 387.030396,225.849121 387.817169,225.153076 
	C387.622803,225.691574 387.158447,226.352524 386.345459,227.004898 
z"/>
<path fill="#4B464D" opacity="1.000000" stroke="none" 
	d="
M390.626221,215.737701 
	C390.274261,215.679840 389.860260,215.375839 389.363403,214.962280 
	C389.708405,215.065674 390.136322,215.278610 390.626221,215.737701 
z"/>
<path fill="#4B464D" opacity="1.000000" stroke="none" 
	d="
M379.726288,191.701385 
	C379.387787,191.418716 379.149933,190.860550 379.013611,190.121460 
	C379.352417,190.435669 379.589691,190.930771 379.726288,191.701385 
z"/>
<path fill="#4B464D" opacity="1.000000" stroke="none" 
	d="
M213.362396,338.818542 
	C213.550034,338.548065 214.023285,338.341583 214.746887,338.069336 
	C214.547501,338.296570 214.097748,338.589539 213.362396,338.818542 
z"/>
<path fill="#4B464D" opacity="1.000000" stroke="none" 
	d="
M369.043274,167.711182 
	C368.825012,167.728683 368.605225,167.439514 368.236206,166.922256 
	C368.405212,166.930954 368.723450,167.167740 369.043274,167.711182 
z"/>
<path fill="#4B464D" opacity="1.000000" stroke="none" 
	d="
M383.295166,228.959961 
	C383.302979,228.802505 383.595276,228.583145 384.122162,228.220734 
	C384.097717,228.351135 383.838684,228.624603 383.295166,228.959961 
z"/>
<path fill="#4B464D" opacity="1.000000" stroke="none" 
	d="
M372.774200,176.716614 
	C372.601227,176.756531 372.418365,176.559601 372.121399,176.194351 
	C372.328003,176.055420 372.580353,176.206680 372.774200,176.716614 
z"/>
<path fill="#4B464D" opacity="1.000000" stroke="none" 
	d="
M374.791840,180.710449 
	C374.622528,180.729187 374.437958,180.499741 374.141510,180.077271 
	C374.340698,179.990921 374.589691,180.183594 374.791840,180.710449 
z"/>
<path fill="#4B464D" opacity="1.000000" stroke="none" 
	d="
M377.740875,186.728912 
	C377.590210,186.760071 377.411285,186.570435 377.122192,186.216980 
	C377.302429,186.110657 377.535950,186.262314 377.740875,186.728912 
z"/>
<path fill="#4B464D" opacity="1.000000" stroke="none" 
	d="
M228.282043,331.721832 
	C228.260437,331.574646 228.459213,331.400818 228.827713,331.121216 
	C228.908615,331.293427 228.743591,331.520020 228.282043,331.721832 
z"/>
<path fill="#4B464D" opacity="1.000000" stroke="none" 
	d="
M382.827026,197.733887 
	C382.647949,197.779877 382.450439,197.576523 382.131287,197.196106 
	C382.348724,197.040451 382.615021,197.195618 382.827026,197.733887 
z"/>
<path fill="#4B464D" opacity="1.000000" stroke="none" 
	d="
M383.995789,199.712555 
	C383.784698,199.737946 383.568390,199.470078 383.204193,198.990402 
	C383.367737,198.992172 383.679108,199.205750 383.995789,199.712555 
z"/>
<path fill="#4B464D" opacity="1.000000" stroke="none" 
	d="
M384.784729,201.718567 
	C384.609680,201.762711 384.424835,201.568893 384.125336,201.207993 
	C384.334259,201.059280 384.589050,201.205856 384.784729,201.718567 
z"/>
<path fill="#FC7978" opacity="1.000000" stroke="none" 
	d="
M236.951126,319.948181 
	C233.029877,322.363953 229.121140,324.803284 225.045990,327.535095 
	C224.879608,327.827515 224.924515,327.869202 224.605042,327.918060 
	C223.472382,328.608734 222.659180,329.250549 221.845978,329.892395 
	C221.845993,329.892395 221.914352,329.900787 221.601929,329.917450 
	C220.281387,330.649048 219.273285,331.363983 218.265182,332.078918 
	C218.265182,332.078918 218.124451,331.999176 217.715439,332.110535 
	C214.533630,332.614227 211.760818,333.006561 208.988022,333.398895 
	C209.023773,333.164825 209.059509,332.930786 209.315826,332.097351 
	C210.064590,330.016724 210.592789,328.535461 211.120972,327.054230 
	C211.120972,327.054230 211.053192,327.049103 211.321823,326.857727 
	C212.026108,325.447815 212.461761,324.229279 212.897430,323.010712 
	C212.897430,323.010712 213.077652,322.673981 213.383209,322.273376 
	C214.647888,319.697754 215.606995,317.522797 216.566101,315.347809 
	C216.566101,315.347809 216.622604,314.949066 216.722290,314.569672 
	C218.098038,311.124695 219.374069,308.059082 220.650116,304.993500 
	C220.777374,304.560577 220.904633,304.127655 221.346405,303.146057 
	C224.714935,295.056366 227.768936,287.515350 230.928589,279.818115 
	C231.034225,279.661865 231.091599,279.288483 231.390076,279.087799 
	C235.933365,268.835236 240.178207,258.783386 244.665222,248.470612 
	C247.297012,242.486862 249.686630,236.764008 252.169830,230.966919 
	C252.263428,230.892700 252.263306,230.653809 252.534866,230.403351 
	C255.922150,222.489487 259.037872,214.826065 262.122925,207.138214 
	C262.092285,207.113770 262.168701,207.130768 262.435089,206.915298 
	C263.834595,203.830261 264.967712,200.960693 266.360901,197.863815 
	C267.721222,195.057922 268.917084,192.515060 269.897675,189.891739 
	C271.133453,186.585739 273.077240,184.926880 276.963562,186.634674 
	C298.631561,194.853348 320.008148,202.916534 341.451691,210.797607 
	C352.907227,215.007828 364.478271,218.903809 376.172119,223.023743 
	C376.347076,223.105911 376.732819,223.130997 376.919373,223.413406 
	C376.931763,224.954468 376.757538,226.213104 376.583313,227.471756 
	C376.583344,227.471756 376.674408,227.643997 376.448669,227.660950 
	C375.752411,228.078430 375.281952,228.478958 374.811493,228.879486 
	C374.811493,228.879486 374.900696,228.877167 374.585266,228.877991 
	C373.426392,229.496521 372.582947,230.114212 371.739502,230.731888 
	C371.739502,230.731888 371.869232,230.835220 371.612885,230.811432 
	C370.898621,231.169434 370.440704,231.551193 369.982788,231.932983 
	C369.982788,231.932983 369.944733,231.925858 369.680176,232.016922 
	C369.209656,232.390549 369.003723,232.673111 368.797760,232.955673 
	C368.797760,232.955673 369.015839,232.896240 368.666321,232.824921 
	C367.840515,233.134140 367.364227,233.514694 366.887909,233.895248 
	C352.709839,243.106064 338.469757,252.223053 324.366852,261.547516 
	C296.305298,280.101105 268.319214,298.768860 240.142853,317.685425 
	C239.983719,317.981415 240.000107,317.998169 239.679642,318.036804 
	C238.544830,318.700073 237.730499,319.324677 236.916138,319.949280 
	C236.916138,319.949249 236.963623,319.971771 236.951126,319.948181 
z"/>
<path fill="#8395FB" opacity="1.000000" stroke="none" 
	d="
M221.896088,292.783905 
	C216.612244,305.322662 211.328400,317.861420 206.044556,330.400177 
	C205.651321,330.412018 205.258072,330.423859 204.864838,330.435730 
	C204.292969,328.692566 203.542068,326.986115 203.176056,325.200745 
	C197.551865,297.766174 191.891083,270.338623 186.419708,242.873398 
	C182.119003,221.284622 178.096588,199.640518 173.887802,178.033234 
	C172.369858,170.240356 170.669235,162.483047 168.940063,153.942291 
	C168.491074,151.464111 168.154007,149.753113 167.816940,148.042130 
	C168.080994,147.730072 168.345047,147.418030 169.221115,146.920807 
	C170.812317,146.898682 171.852325,146.901993 172.761765,147.248245 
	C193.601212,155.182648 214.398132,163.229538 235.266418,171.086975 
	C245.434296,174.915405 255.730408,178.403259 266.177338,182.364838 
	C266.594757,184.146576 266.803284,185.608780 266.789307,187.224319 
	C266.381744,187.863739 266.196716,188.349808 265.858643,189.162292 
	C265.246613,190.572281 264.787659,191.655853 264.146027,193.023163 
	C263.101410,195.641190 262.239502,197.975479 261.328125,200.346146 
	C261.278687,200.382507 261.350739,200.481918 261.133362,200.743134 
	C256.244537,212.120316 251.573120,223.236313 246.641266,234.598557 
	C246.259338,235.529404 246.137817,236.213974 245.838150,237.102753 
	C245.400146,237.772034 245.140289,238.237106 244.661514,238.969940 
	C244.243011,240.132156 244.043427,241.026627 243.599640,242.084259 
	C243.136215,242.783707 242.916992,243.319992 242.488052,244.129395 
	C240.783661,248.215775 239.288986,252.029037 237.841049,255.872269 
	C237.887787,255.902237 237.827240,255.809174 237.543427,255.993088 
	C236.821167,257.442047 236.382721,258.707062 235.970016,259.987122 
	C235.995773,260.002136 235.956161,259.958191 235.673752,260.146271 
	C234.605408,262.222534 233.819458,264.110718 232.870789,266.275543 
	C232.479126,267.367889 232.250198,268.183533 231.926315,269.072021 
	C231.831360,269.144806 231.800705,269.382111 231.515381,269.625916 
	C230.719543,271.281982 230.209045,272.694275 229.533279,274.211792 
	C229.368011,274.317017 229.242905,274.688324 229.082001,274.965759 
	C228.281860,276.831665 227.642624,278.420166 226.855820,280.326904 
	C225.795990,283.117218 224.883698,285.589294 223.887238,288.116699 
	C223.803055,288.172089 223.810486,288.373444 223.540848,288.581116 
	C222.945801,289.849518 222.620392,290.910248 222.168472,292.161072 
	C222.041977,292.351166 221.896088,292.783905 221.896088,292.783905 
z"/>
<path fill="#FDDC76" opacity="1.000000" stroke="none" 
	d="
M343.545410,128.848053 
	C345.613831,133.074768 347.682281,137.301483 349.987885,142.169312 
	C351.360504,144.980606 352.496002,147.150757 353.631500,149.320908 
	C353.631500,149.320908 353.785370,149.150360 353.759338,149.598267 
	C355.412140,153.344162 357.090973,156.642136 358.769806,159.940109 
	C358.769806,159.940109 358.772888,160.050934 358.872742,160.385712 
	C359.601562,161.874420 360.230591,163.028336 360.859589,164.182266 
	C360.859589,164.182266 360.920441,164.057877 360.899780,164.352814 
	C361.164917,165.210526 361.450714,165.773285 361.736511,166.336044 
	C361.736511,166.336044 361.780396,166.117325 361.710693,166.442169 
	C362.049194,167.275818 362.457397,167.784607 362.865631,168.293411 
	C362.865631,168.293411 362.899048,168.682205 363.008698,169.183899 
	C363.400787,170.001404 363.683258,170.317230 363.965698,170.633041 
	C363.965698,170.633041 363.722351,170.751114 363.837921,171.222260 
	C364.953613,173.486725 365.953735,175.280029 366.953888,177.073334 
	C366.953888,177.073334 367.007050,177.547348 367.067108,178.086166 
	C367.685211,179.495300 368.243225,180.365616 368.801270,181.235916 
	C368.801270,181.235916 368.819916,181.128296 368.839844,181.486603 
	C370.809174,185.821762 372.758606,189.798615 374.708008,193.775452 
	C374.701355,194.072952 374.771301,194.351196 375.010284,195.118713 
	C375.698120,196.503693 376.293549,197.380127 376.889008,198.256561 
	C376.889008,198.256561 376.879517,198.654083 376.953979,199.179581 
	C377.998016,201.498779 378.967529,203.292496 379.937042,205.086212 
	C379.937042,205.086212 379.971558,205.031509 380.008270,205.351639 
	C380.654541,206.502396 381.264069,207.333008 381.873596,208.163635 
	C382.488647,209.595764 383.103699,211.027893 383.886963,213.143372 
	C384.326477,215.870529 384.597778,217.914337 384.869080,219.958130 
	C383.700104,220.579254 382.531128,221.200394 381.067810,221.482422 
	C380.773438,221.143295 380.477142,220.976028 380.191284,220.716583 
	C345.619659,207.714264 311.333832,194.971405 276.696472,182.090393 
	C274.081848,181.350510 273.625519,180.371841 274.656097,177.990265 
	C277.939941,170.401413 280.873474,162.660965 284.180420,154.716553 
	C287.987030,146.511063 291.569092,138.574158 295.121033,130.623795 
	C301.470001,116.412910 307.800842,102.193924 314.307007,87.725143 
	C314.627869,87.096916 314.781006,86.721855 314.865845,86.291229 
	C314.797607,86.235680 314.908325,86.098854 315.187195,85.894562 
	C317.025391,84.085007 318.584778,82.479736 320.329865,81.030144 
	C320.709229,81.627708 320.902863,82.069580 321.156128,82.846497 
	C321.523529,83.773010 321.831329,84.364471 322.108337,84.951378 
	C322.077576,84.946831 322.115540,84.897697 322.131134,85.218628 
	C322.726624,86.376320 323.306549,87.213089 323.886475,88.049850 
	C324.242554,88.726746 324.598633,89.403641 325.068237,90.671402 
	C325.450012,91.820793 325.718201,92.379326 325.986389,92.937851 
	C325.986389,92.937859 326.208130,93.197838 326.334534,93.632889 
	C326.685852,94.382812 326.910767,94.697685 327.135681,95.012573 
	C327.135681,95.012573 327.041046,94.964684 327.049744,95.297096 
	C327.997711,97.427322 328.937012,99.225128 329.876282,101.022949 
	C329.876282,101.022949 330.016602,101.180908 330.064178,101.506470 
	C330.418701,102.225662 330.725647,102.619293 331.032593,103.012932 
	C331.032593,103.012932 330.978058,103.002548 331.033325,103.257507 
	C331.346466,104.002258 331.604340,104.492050 331.862213,104.981842 
	C331.862213,104.981842 332.072876,105.373367 332.198792,105.888802 
	C332.671021,106.918465 333.017303,107.432686 333.363586,107.946915 
	C333.363586,107.946922 333.135834,107.880585 333.233093,108.015625 
	C333.503174,108.441574 333.676025,108.732483 333.848877,109.023392 
	C333.848877,109.023384 334.058350,109.376488 334.104706,109.900085 
	C334.697296,111.273430 335.243530,112.123177 335.789764,112.972916 
	C335.875946,113.146873 335.962158,113.320839 336.101318,114.105782 
	C336.780731,115.794144 337.407257,116.871529 338.033752,117.948921 
	C338.033752,117.948921 338.021271,117.972733 338.033051,118.314995 
	C338.677734,119.750328 339.310638,120.843391 339.943542,121.936462 
	C339.943542,121.936455 340.072968,121.964424 340.138000,122.310379 
	C340.533997,123.145493 340.864960,123.634651 341.195953,124.123802 
	C341.195953,124.123802 341.226227,124.243103 341.270416,124.561279 
	C341.523743,125.248100 341.732880,125.616737 341.941986,125.985367 
	C341.941986,125.985374 342.023193,126.015610 342.058441,126.378845 
	C342.577606,127.444061 343.061493,128.146057 343.545410,128.848053 
z"/>
<path fill="#7BD8DC" opacity="1.000000" stroke="none" 
	d="
M208.683624,123.235855 
	C220.829758,117.642242 232.996613,112.093102 245.117416,106.445091 
	C265.769592,96.821663 286.378204,87.104645 307.055450,77.535683 
	C308.730377,76.760582 310.792114,76.821365 312.881378,77.114075 
	C312.930634,78.704880 312.772644,79.675323 312.383362,80.909386 
	C311.277161,83.113251 310.377106,85.042603 309.531281,86.995415 
	C300.206696,108.523613 290.890503,130.055420 281.592072,151.648712 
	C281.612091,151.711166 281.742279,151.695145 281.494568,151.895172 
	C281.131134,152.710754 281.015350,153.326294 280.598114,154.111755 
	C279.285919,156.859146 278.275238,159.436615 277.109009,162.341278 
	C276.519226,163.763947 276.084900,164.859436 275.614288,166.151428 
	C275.577972,166.347961 275.970856,166.421356 275.655518,166.554291 
	C275.218536,167.121948 275.096924,167.556671 274.724030,168.216553 
	C273.973083,169.930832 273.473480,171.419952 272.701538,173.116608 
	C271.770355,174.798050 271.111511,176.271988 270.589996,177.758270 
	C270.727325,177.770615 270.750916,177.495865 270.456848,177.638580 
	C268.784302,177.826065 267.405884,177.870865 265.743042,177.764252 
	C265.042786,177.511841 264.626862,177.410812 263.951904,177.092697 
	C233.190979,165.401199 202.689133,153.926788 171.016068,142.011795 
	C178.836853,137.971817 185.482483,134.538879 192.128098,131.105957 
	C192.128098,131.105957 192.063736,131.087082 192.398117,131.081619 
	C193.882950,130.433624 195.033401,129.791092 196.183838,129.148544 
	C196.183838,129.148544 196.065384,129.118958 196.427765,129.123688 
	C200.754654,127.164223 204.719131,125.200043 208.683624,123.235855 
z"/>
<path fill="#3C4C5C" opacity="1.000000" stroke="none" 
	d="
M191.732422,131.101562 
	C185.482483,134.538879 178.836853,137.971817 171.016068,142.011795 
	C202.689133,153.926788 233.190979,165.401199 264.016846,177.443481 
	C264.939575,179.290634 265.538361,180.569885 266.094818,181.898041 
	C266.052490,181.946945 265.968475,182.045288 265.968475,182.045288 
	C255.730408,178.403259 245.434296,174.915405 235.266418,171.086975 
	C214.398132,163.229538 193.601212,155.182648 172.761765,147.248245 
	C171.852325,146.901993 170.812317,146.898682 169.437988,146.702515 
	C169.623749,140.576019 173.869003,137.870239 178.952377,135.917908 
	C183.087677,134.329697 187.209152,132.705444 191.732422,131.101562 
z"/>
<path fill="#4B464D" opacity="1.000000" stroke="none" 
	d="
M221.912476,293.200378 
	C221.896088,292.783905 222.041977,292.351166 222.435852,291.957123 
	C223.156662,290.499878 223.483566,289.436646 223.810486,288.373444 
	C223.810486,288.373444 223.803055,288.172089 224.189957,287.950439 
	C225.691162,285.174500 226.805466,282.620148 228.282501,280.051819 
	C229.371140,280.016693 230.097031,279.995514 230.822937,279.974365 
	C227.768936,287.515350 224.714935,295.056366 221.379761,302.807373 
	C221.375336,299.883881 221.652084,296.750397 221.912476,293.200378 
z"/>
<path fill="#424F4C" opacity="1.000000" stroke="none" 
	d="
M312.614624,80.645767 
	C312.772644,79.675323 312.930634,78.704880 313.147339,77.370277 
	C314.485687,77.205414 315.821777,77.743431 317.034546,77.541283 
	C320.870331,76.901894 322.049194,78.833839 322.039307,82.582848 
	C322.035583,82.980438 321.996521,83.002739 321.781311,82.862000 
	C321.409515,82.651321 321.252991,82.581390 321.096497,82.511452 
	C320.902863,82.069580 320.709229,81.627708 320.301270,80.680115 
	C316.993225,77.014946 317.442719,81.483742 315.783569,81.914757 
	C314.692017,81.552475 313.891022,81.313766 312.971436,80.967438 
	C312.852844,80.859810 312.614624,80.645767 312.614624,80.645767 
z"/>
<path fill="#4B464D" opacity="1.000000" stroke="none" 
	d="
M374.745056,193.344955 
	C372.758606,189.798615 370.809174,185.821762 368.785950,181.477631 
	C370.735504,185.045044 372.758820,188.979736 374.745056,193.344955 
z"/>
<path fill="#3C4C5C" opacity="1.000000" stroke="none" 
	d="
M208.250580,123.210968 
	C204.719131,125.200043 200.754654,127.164223 196.413177,129.182953 
	C199.963318,127.220367 203.890427,125.203224 208.250580,123.210968 
z"/>
<path fill="#4B464D" opacity="1.000000" stroke="none" 
	d="
M209.086731,333.699829 
	C211.760818,333.006561 214.533630,332.614227 217.667969,332.176025 
	C214.944946,336.235718 212.675034,336.715820 209.086731,333.699829 
z"/>
<path fill="#54513B" opacity="1.000000" stroke="none" 
	d="
M358.786865,159.572754 
	C357.090973,156.642136 355.412140,153.344162 353.676788,149.687485 
	C355.348145,152.620987 357.076050,155.913193 358.786865,159.572754 
z"/>
<path fill="#4B464D" opacity="1.000000" stroke="none" 
	d="
M220.327698,305.086548 
	C219.374069,308.059082 218.098038,311.124695 216.560394,314.449890 
	C217.534302,311.532867 218.769791,308.356232 220.327698,305.086548 
z"/>
<path fill="#4B464D" opacity="1.000000" stroke="none" 
	d="
M216.268219,315.272156 
	C215.606995,317.522797 214.647888,319.697754 213.398163,322.083008 
	C214.061798,319.927643 215.016068,317.562073 216.268219,315.272156 
z"/>
<path fill="#54513B" opacity="1.000000" stroke="none" 
	d="
M353.664612,148.944214 
	C352.496002,147.150757 351.360504,144.980606 350.176208,142.486404 
	C351.317505,144.297394 352.507629,146.432449 353.664612,148.944214 
z"/>
<path fill="#544747" opacity="1.000000" stroke="none" 
	d="
M376.924744,227.515289 
	C376.757538,226.213104 376.931763,224.954468 377.294067,223.386475 
	C377.982605,223.056274 378.483093,223.035400 378.983551,223.014526 
	C379.134369,224.802628 380.810577,227.167175 376.924744,227.515289 
z"/>
<path fill="#4B464D" opacity="1.000000" stroke="none" 
	d="
M385.060242,219.646805 
	C384.597778,217.914337 384.326477,215.870529 384.056824,213.443481 
	C384.456116,215.151978 384.853729,217.243729 385.060242,219.646805 
z"/>
<path fill="#E5D28B" opacity="1.000000" stroke="none" 
	d="
M329.900696,100.674149 
	C328.937012,99.225128 327.997711,97.427322 327.073730,95.249817 
	C328.034424,96.688530 328.979767,98.506943 329.900696,100.674149 
z"/>
<path fill="#3C4C5C" opacity="1.000000" stroke="none" 
	d="
M167.577545,148.190094 
	C168.154007,149.753113 168.491074,151.464111 168.839355,153.546295 
	C168.346420,152.057678 167.842300,150.197861 167.577545,148.190094 
z"/>
<path fill="#4B464D" opacity="1.000000" stroke="none" 
	d="
M366.951050,176.690826 
	C365.953735,175.280029 364.953613,173.486725 363.896729,171.344055 
	C364.876007,172.765900 365.912109,174.537125 366.951050,176.690826 
z"/>
<path fill="#4B464D" opacity="1.000000" stroke="none" 
	d="
M210.860443,327.227448 
	C210.592789,328.535461 210.064590,330.016724 209.301422,331.742493 
	C209.577621,330.458252 210.088776,328.929474 210.860443,327.227448 
z"/>
<path fill="#4B464D" opacity="1.000000" stroke="none" 
	d="
M379.937988,204.718658 
	C378.967529,203.292496 377.998016,201.498779 377.048645,199.354401 
	C378.025513,200.786194 378.982239,202.568665 379.937988,204.718658 
z"/>
<path fill="#E5D28B" opacity="1.000000" stroke="none" 
	d="
M339.930389,121.611237 
	C339.310638,120.843391 338.677734,119.750328 338.046021,118.313812 
	C338.670563,119.075577 339.293915,120.180786 339.930389,121.611237 
z"/>
<path fill="#E5D28B" opacity="1.000000" stroke="none" 
	d="
M338.012695,117.625183 
	C337.407257,116.871529 336.780731,115.794144 336.183075,114.385300 
	C336.805145,115.136391 337.398376,116.218918 338.012695,117.625183 
z"/>
<path fill="#4B464D" opacity="1.000000" stroke="none" 
	d="
M379.281372,222.748779 
	C378.483093,223.035400 377.982605,223.056274 377.107483,223.104065 
	C376.732819,223.130997 376.347076,223.105911 376.379761,222.734497 
	C377.767365,221.900726 379.122253,221.438385 380.477142,220.976028 
	C380.477142,220.976028 380.773438,221.143295 380.796844,221.311096 
	C380.406555,221.813614 379.992859,222.148331 379.281372,222.748779 
z"/>
<path fill="#4B464D" opacity="1.000000" stroke="none" 
	d="
M212.652603,323.233643 
	C212.461761,324.229279 212.026108,325.447815 211.341415,326.885498 
	C211.530838,325.888611 211.969315,324.672577 212.652603,323.233643 
z"/>
<path fill="#3C4C5C" opacity="1.000000" stroke="none" 
	d="
M195.834167,129.158554 
	C195.033401,129.791092 193.882950,130.433624 192.394104,131.114914 
	C193.198639,130.491959 194.341568,129.830261 195.834167,129.158554 
z"/>
<path fill="#4B464D" opacity="1.000000" stroke="none" 
	d="
M218.595032,332.044403 
	C219.273285,331.363983 220.281387,330.649048 221.603333,329.883057 
	C220.919739,330.557953 219.922318,331.283936 218.595032,332.044403 
z"/>
<path fill="#4B464D" opacity="1.000000" stroke="none" 
	d="
M381.841675,207.835327 
	C381.264069,207.333008 380.654541,206.502396 379.976196,205.355911 
	C380.541565,205.862381 381.175659,206.684708 381.841675,207.835327 
z"/>
<path fill="#4B464D" opacity="1.000000" stroke="none" 
	d="
M222.179901,329.859436 
	C222.659180,329.250549 223.472382,328.608734 224.595566,327.890503 
	C224.108322,328.484894 223.311081,329.155701 222.179901,329.859436 
z"/>
<path fill="#4B464D" opacity="1.000000" stroke="none" 
	d="
M376.866669,197.927933 
	C376.293549,197.380127 375.698120,196.503693 375.125061,195.303131 
	C375.713043,195.852432 376.278687,196.725861 376.866669,197.927933 
z"/>
<path fill="#E5D28B" opacity="1.000000" stroke="none" 
	d="
M335.791168,112.658463 
	C335.243530,112.123177 334.697296,111.273430 334.143860,110.101593 
	C334.688660,110.634331 335.240601,111.489166 335.791168,112.658463 
z"/>
<path fill="#4B464D" opacity="1.000000" stroke="none" 
	d="
M368.794250,180.910706 
	C368.243225,180.365616 367.685211,179.495300 367.149475,178.309998 
	C367.710266,178.858490 368.248749,179.721985 368.794250,180.910706 
z"/>
<path fill="#E5D28B" opacity="1.000000" stroke="none" 
	d="
M323.939148,87.808167 
	C323.306549,87.213089 322.726624,86.376320 322.322083,85.271744 
	C322.497406,85.003937 322.876312,85.120499 322.876312,85.120499 
	C322.876312,85.120499 322.968842,85.083992 322.974609,85.382080 
	C323.315460,85.981491 323.650513,86.282822 323.985565,86.584152 
	C323.916504,86.912041 323.918579,87.239487 323.939148,87.808167 
z"/>
<path fill="#4B464D" opacity="1.000000" stroke="none" 
	d="
M360.814789,163.847321 
	C360.230591,163.028336 359.601562,161.874420 358.928162,160.384476 
	C359.512482,161.203094 360.141235,162.357742 360.814789,163.847321 
z"/>
<path fill="#544747" opacity="1.000000" stroke="none" 
	d="
M372.112549,230.788605 
	C372.582947,230.114212 373.426392,229.496521 374.583862,228.833405 
	C374.679352,229.342194 374.460785,229.896439 374.113525,230.719208 
	C373.485077,230.940262 372.985352,230.892776 372.112549,230.788605 
z"/>
<path fill="#E5D28B" opacity="1.000000" stroke="none" 
	d="
M343.477844,128.526611 
	C343.061493,128.146057 342.577606,127.444061 342.043396,126.419464 
	C342.465485,126.799637 342.937897,127.502403 343.477844,128.526611 
z"/>
<path fill="#E5D28B" opacity="1.000000" stroke="none" 
	d="
M341.174225,123.810364 
	C340.864960,123.634651 340.533997,123.145493 340.124084,122.375122 
	C340.414307,122.561584 340.783417,123.029259 341.174225,123.810364 
z"/>
<path fill="#4B464D" opacity="1.000000" stroke="none" 
	d="
M361.679596,166.022308 
	C361.450714,165.773285 361.164917,165.210526 360.837524,164.322525 
	C361.071472,164.567719 361.347076,165.138138 361.679596,166.022308 
z"/>
<path fill="#4B464D" opacity="1.000000" stroke="none" 
	d="
M362.767059,167.985046 
	C362.457397,167.784607 362.049194,167.275818 361.601257,166.420593 
	C361.930511,166.608353 362.299500,167.142532 362.767059,167.985046 
z"/>
<path fill="#424F4C" opacity="1.000000" stroke="none" 
	d="
M322.820984,84.835091 
	C322.876312,85.120499 322.497406,85.003937 322.306458,84.950821 
	C322.115540,84.897697 322.077576,84.946831 322.103821,84.624557 
	C322.085541,83.869102 322.041046,83.435921 321.996521,83.002739 
	C321.996521,83.002739 322.035583,82.980438 322.055573,82.971779 
	C322.305603,83.491974 322.535645,84.020828 322.820984,84.835091 
z"/>
<path fill="#E5D28B" opacity="1.000000" stroke="none" 
	d="
M331.018677,102.748032 
	C330.725647,102.619293 330.418701,102.225662 330.025269,101.604675 
	C330.294098,101.745926 330.649445,102.114525 331.018677,102.748032 
z"/>
<path fill="#E5D28B" opacity="1.000000" stroke="none" 
	d="
M333.327515,107.621178 
	C333.017303,107.432686 332.671021,106.918465 332.248413,106.105499 
	C332.545227,106.302986 332.918304,106.799217 333.327515,107.621178 
z"/>
<path fill="#E5D28B" opacity="1.000000" stroke="none" 
	d="
M331.879944,104.693657 
	C331.604340,104.492050 331.346466,104.002258 331.049683,103.235077 
	C331.306396,103.440277 331.602020,103.922874 331.879944,104.693657 
z"/>
<path fill="#544747" opacity="1.000000" stroke="none" 
	d="
M375.105347,228.784424 
	C375.281952,228.478958 375.752411,228.078430 376.534607,227.615112 
	C376.363953,227.931335 375.881592,228.310364 375.105347,228.784424 
z"/>
<path fill="#E5D28B" opacity="1.000000" stroke="none" 
	d="
M326.005798,92.610710 
	C325.718201,92.379326 325.450012,91.820793 325.141663,90.948685 
	C325.409424,91.184593 325.717346,91.734085 326.005798,92.610710 
z"/>
<path fill="#E5D28B" opacity="1.000000" stroke="none" 
	d="
M341.915222,125.648514 
	C341.732880,125.616737 341.523743,125.248100 341.210785,124.576492 
	C341.367462,124.619576 341.627960,124.965622 341.915222,125.648514 
z"/>
<path fill="#E5D28B" opacity="1.000000" stroke="none" 
	d="
M327.082703,94.712860 
	C326.910767,94.697685 326.685852,94.382812 326.352478,93.802780 
	C326.505920,93.829468 326.767822,94.121315 327.082703,94.712860 
z"/>
<path fill="#4B464D" opacity="1.000000" stroke="none" 
	d="
M363.825439,170.362366 
	C363.683258,170.317230 363.400787,170.001404 363.104553,169.353821 
	C363.288910,169.378616 363.487030,169.735153 363.825439,170.362366 
z"/>
<path fill="#424F4C" opacity="1.000000" stroke="none" 
	d="
M323.814697,86.315224 
	C323.650513,86.282822 323.315460,85.981491 322.956421,85.335777 
	C323.169586,85.343033 323.406708,85.694664 323.814697,86.315224 
z"/>
<path fill="#E5D28B" opacity="1.000000" stroke="none" 
	d="
M333.861816,108.748932 
	C333.676025,108.732483 333.503174,108.441574 333.266510,107.901825 
	C333.426666,107.926811 333.650696,108.200645 333.861816,108.748932 
z"/>
<path fill="#544747" opacity="1.000000" stroke="none" 
	d="
M367.173706,233.799973 
	C367.364227,233.514694 367.840515,233.134140 368.636536,232.715881 
	C368.457367,233.020370 367.958466,233.362534 367.173706,233.799973 
z"/>
<path fill="#544747" opacity="1.000000" stroke="none" 
	d="
M370.259216,231.833725 
	C370.440704,231.551193 370.898621,231.169434 371.664337,230.746414 
	C371.493286,231.048279 371.014435,231.391388 370.259216,231.833725 
z"/>
<path fill="#544747" opacity="1.000000" stroke="none" 
	d="
M368.995850,232.798950 
	C369.003723,232.673111 369.209656,232.390549 369.677612,232.036102 
	C369.691071,232.190216 369.442505,232.416214 368.995850,232.798950 
z"/>
<path fill="#FBDC77" opacity="1.000000" stroke="none" 
	d="
M197.059341,413.911530 
	C197.059341,413.911530 197.213760,414.110107 197.282745,414.524902 
	C197.587219,415.300262 197.822739,415.660828 198.058258,416.021423 
	C198.058243,416.021423 197.995377,416.003387 197.994080,416.377686 
	C198.989105,419.197632 199.985428,421.643219 200.981735,424.088837 
	C200.981735,424.088837 201.148834,424.348236 201.094055,424.833588 
	C201.025360,425.540588 201.011429,425.762268 201.103790,426.308350 
	C202.010437,429.715790 199.882278,429.855438 197.806137,429.972809 
	C193.545181,430.213776 189.281815,430.412018 185.019440,430.627838 
	C184.274216,430.640320 183.528976,430.652832 182.188568,430.339600 
	C179.006180,428.258057 176.418991,426.502289 173.831787,424.746521 
	C177.705765,418.631683 181.579758,412.516846 185.904602,406.011993 
	C186.543488,405.328827 186.731537,405.035706 186.919556,404.742584 
	C186.919556,404.742584 186.959763,404.945557 187.072708,404.766663 
	C187.416245,404.274292 187.646835,403.960846 187.877441,403.647400 
	C187.877441,403.647400 187.839813,403.803925 188.075531,403.676697 
	C188.816772,402.634705 189.322296,401.719940 189.827820,400.805145 
	C189.827820,400.805145 189.788986,400.885284 190.187073,400.902588 
	C191.374252,401.006409 192.163361,401.092957 192.952469,401.179504 
	C193.092178,401.692474 193.231873,402.205414 193.349121,403.352234 
	C193.645569,404.661682 193.964447,405.337250 194.283325,406.012848 
	C194.283325,406.012848 194.116440,405.926086 194.192017,406.148376 
	C194.496460,406.937012 194.725342,407.503418 194.954224,408.069794 
	C195.130173,408.313019 195.224884,408.584564 195.280563,409.385498 
	C195.541321,410.244659 195.759918,410.602783 195.978516,410.960876 
	C195.978516,410.960876 196.043594,410.980377 196.055481,411.323242 
	C196.398010,412.414581 196.728683,413.163055 197.059341,413.911530 
z"/>
<path fill="#E5DA92" opacity="1.000000" stroke="none" 
	d="
M185.475235,430.742737 
	C189.281815,430.412018 193.545181,430.213776 197.806137,429.972809 
	C199.882278,429.855438 202.010437,429.715790 201.356415,426.312195 
	C201.671097,425.993927 201.839462,425.996185 202.007828,425.998474 
	C202.423370,427.487335 202.838913,428.976227 203.364014,430.857666 
	C197.124710,430.857666 191.527878,430.857666 185.475235,430.742737 
z"/>
<path fill="#E5DA92" opacity="1.000000" stroke="none" 
	d="
M173.544281,424.966431 
	C176.418991,426.502289 179.006180,428.258057 181.824646,430.256165 
	C179.745087,430.294556 177.415543,430.211395 175.128006,429.857117 
	C172.044693,429.379578 170.975784,427.906097 173.544281,424.966431 
z"/>
<path fill="#E5D28B" opacity="1.000000" stroke="none" 
	d="
M201.013199,423.707489 
	C199.985428,421.643219 198.989105,419.197632 198.008118,416.348175 
	C199.030533,418.404938 200.037598,420.865540 201.013199,423.707489 
z"/>
<path fill="#E5D28B" opacity="1.000000" stroke="none" 
	d="
M189.553070,400.964844 
	C189.322296,401.719940 188.816772,402.634705 187.997375,403.657532 
	C188.215088,402.885193 188.746689,402.004852 189.553070,400.964844 
z"/>
<path fill="#E5D28B" opacity="1.000000" stroke="none" 
	d="
M192.955811,400.888458 
	C192.163361,401.092957 191.374252,401.006409 190.193726,400.856995 
	C190.854584,400.728546 191.906860,400.662964 192.955811,400.888458 
z"/>
<path fill="#E5D28B" opacity="1.000000" stroke="none" 
	d="
M197.084839,413.590088 
	C196.728683,413.163055 196.398010,412.414581 196.043396,411.354980 
	C196.383072,411.785461 196.746704,412.527039 197.084839,413.590088 
z"/>
<path fill="#E5D28B" opacity="1.000000" stroke="none" 
	d="
M194.994186,407.743317 
	C194.725342,407.503418 194.496460,406.937012 194.235565,406.065002 
	C194.480423,406.311890 194.757278,406.864349 194.994186,407.743317 
z"/>
<path fill="#E5D28B" opacity="1.000000" stroke="none" 
	d="
M194.258240,405.626465 
	C193.964447,405.337250 193.645569,404.661682 193.277985,403.610382 
	C193.563889,403.903137 193.898514,404.571625 194.258240,405.626465 
z"/>
<path fill="#E5D28B" opacity="1.000000" stroke="none" 
	d="
M201.933136,425.730530 
	C201.839462,425.996185 201.671097,425.993927 201.250107,425.987793 
	C201.011429,425.762268 201.025360,425.540588 201.082977,424.987457 
	C201.370590,424.924835 201.614517,425.193726 201.933136,425.730530 
z"/>
<path fill="#E5D28B" opacity="1.000000" stroke="none" 
	d="
M197.988480,415.694061 
	C197.822739,415.660828 197.587219,415.300262 197.227783,414.638062 
	C197.375458,414.679840 197.647079,415.023285 197.988480,415.694061 
z"/>
<path fill="#E5D28B" opacity="1.000000" stroke="none" 
	d="
M195.931580,410.634094 
	C195.759918,410.602783 195.541321,410.244659 195.206482,409.590668 
	C195.355042,409.632294 195.619858,409.969788 195.931580,410.634094 
z"/>
<path fill="#E5D28B" opacity="1.000000" stroke="none" 
	d="
M186.666077,404.862213 
	C186.731537,405.035706 186.543488,405.328827 186.170105,405.805359 
	C186.127365,405.653107 186.269989,405.317474 186.666077,404.862213 
z"/>
<path fill="#E5D28B" opacity="1.000000" stroke="none" 
	d="
M187.602615,403.785034 
	C187.646835,403.960846 187.416245,404.274292 186.971222,404.786621 
	C186.947113,404.631226 187.137451,404.276947 187.602615,403.785034 
z"/>
<path fill="#7ED6D9" opacity="1.000000" stroke="none" 
	d="
M213.964859,379.937592 
	C214.683014,371.023499 215.399323,362.553375 216.115631,354.083221 
	C216.733795,353.872284 217.351944,353.661346 217.970108,353.450409 
	C225.706924,360.328583 233.443726,367.206757 242.082077,374.886414 
	C235.264450,377.750946 229.558395,380.154419 223.846542,382.544006 
	C222.480362,383.115540 221.098236,383.649536 219.717621,384.185852 
	C215.313370,385.896790 214.397659,385.289246 213.964859,379.937592 
z"/>
<path fill="#4B464D" opacity="1.000000" stroke="none" 
	d="
M237.239655,319.909088 
	C237.730499,319.324677 238.544830,318.700073 239.671906,318.028229 
	C239.177460,318.610291 238.370316,319.239594 237.239655,319.909088 
z"/>
<path fill="#544747" opacity="1.000000" stroke="none" 
	d="
M380.191284,220.716583 
	C379.122253,221.438385 377.767365,221.900726 376.204834,222.652344 
	C364.478271,218.903809 352.907227,215.007828 341.451691,210.797607 
	C320.008148,202.916534 298.631561,194.853348 277.048523,186.507721 
	C276.869934,186.149551 277.040039,185.895828 277.245331,185.799622 
	C277.316437,184.545120 277.182220,183.386841 277.048035,182.228546 
	C311.333832,194.971405 345.619659,207.714264 380.191284,220.716583 
z"/>
<path fill="#40485E" opacity="1.000000" stroke="none" 
	d="
M244.880432,238.702179 
	C245.140289,238.237106 245.400146,237.772034 245.995773,236.806244 
	C246.521591,235.654449 246.711639,235.003372 246.901672,234.352295 
	C251.573120,223.236313 256.244537,212.120316 261.246521,201.210693 
	C261.774323,203.321609 261.971527,205.226196 262.168701,207.130768 
	C262.168701,207.130768 262.092285,207.113770 261.808289,207.257370 
	C257.463898,214.764252 252.195541,221.646423 252.263306,230.653809 
	C252.263306,230.653809 252.263428,230.892700 251.883942,231.153290 
	C249.406525,234.341888 247.308578,237.269882 245.123550,239.823929 
	C244.984467,239.200714 244.932434,238.951447 244.880432,238.702179 
z"/>
<path fill="#4B464D" opacity="1.000000" stroke="none" 
	d="
M231.800690,269.382111 
	C231.800705,269.382111 231.831360,269.144806 232.200592,268.918427 
	C233.025574,267.788788 233.481308,266.885498 234.131912,265.684082 
	C234.869904,263.576691 235.413025,261.767426 235.956146,259.958191 
	C235.956161,259.958191 235.995773,260.002136 236.201630,259.748474 
	C236.880753,258.266235 237.353989,257.037720 237.827240,255.809174 
	C237.827240,255.809174 237.887787,255.902237 238.155716,255.742020 
	C240.273041,252.717972 242.122452,249.854126 244.079315,247.426971 
	C244.265549,248.152954 244.344284,248.442230 244.423035,248.731506 
	C240.178207,258.783386 235.933365,268.835236 231.327606,278.667358 
	C230.392090,277.194489 229.817505,275.941406 229.242905,274.688324 
	C229.242905,274.688324 229.368011,274.317017 229.838150,273.966492 
	C230.805756,272.204681 231.303223,270.793396 231.800690,269.382111 
z"/>
<path fill="#544747" opacity="1.000000" stroke="none" 
	d="
M252.534866,230.403351 
	C252.195541,221.646423 257.463898,214.764252 261.838928,207.281799 
	C259.037872,214.826065 255.922150,222.489487 252.534866,230.403351 
z"/>
<path fill="#544747" opacity="1.000000" stroke="none" 
	d="
M266.011688,188.835892 
	C266.196716,188.349808 266.381744,187.863739 267.115051,187.173279 
	C268.753387,186.291473 269.843384,185.614044 271.253662,184.837708 
	C273.395935,185.124451 275.217987,185.510132 277.040039,185.895813 
	C277.040039,185.895828 276.869934,186.149551 276.784973,186.276489 
	C273.077240,184.926880 271.133453,186.585739 269.897675,189.891739 
	C268.917084,192.515060 267.721222,195.057922 266.293518,197.816101 
	C265.966095,197.995697 265.830292,197.901810 265.858704,197.494720 
	C265.909363,195.724213 265.931580,194.360794 266.086426,192.711533 
	C266.149963,191.229095 266.080841,190.032486 266.011688,188.835892 
z"/>
<path fill="#544747" opacity="1.000000" stroke="none" 
	d="
M244.665222,248.470612 
	C244.344284,248.442230 244.265549,248.152954 244.092712,247.100922 
	C244.010529,245.903214 244.022430,245.468246 244.239594,244.864197 
	C244.683762,243.773788 244.922653,242.852448 245.159760,241.641479 
	C245.175522,240.967178 245.193069,240.582535 245.210617,240.197876 
	C247.308578,237.269882 249.406525,234.341888 251.790344,231.227524 
	C249.686630,236.764008 247.297012,242.486862 244.665222,248.470612 
z"/>
<path fill="#544747" opacity="1.000000" stroke="none" 
	d="
M262.435120,206.915298 
	C261.971527,205.226196 261.774323,203.321609 261.463928,200.949478 
	C261.350739,200.481918 261.278687,200.382507 261.661987,200.371353 
	C263.306976,199.540741 264.568634,198.721283 265.830292,197.901810 
	C265.830292,197.901810 265.966095,197.995697 266.033447,198.043411 
	C264.967712,200.960693 263.834595,203.830261 262.435120,206.915298 
z"/>
<path fill="#40485E" opacity="1.000000" stroke="none" 
	d="
M229.082001,274.965759 
	C229.817505,275.941406 230.392090,277.194489 231.029144,278.868042 
	C231.091599,279.288483 231.034225,279.661865 230.928574,279.818115 
	C230.097031,279.995514 229.371140,280.016693 228.054016,280.035339 
	C227.462799,280.032806 227.003372,280.008636 227.003372,280.008636 
	C227.642624,278.420166 228.281860,276.831665 229.082001,274.965759 
z"/>
<path fill="#404863" opacity="1.000000" stroke="none" 
	d="
M244.034332,245.033264 
	C244.022430,245.468246 244.010529,245.903214 243.985229,246.664246 
	C242.122452,249.854126 240.273041,252.717972 238.108978,255.712051 
	C239.288986,252.029037 240.783661,248.215775 242.718384,244.316406 
	C243.450409,244.497971 243.742371,244.765610 244.034332,245.033264 
z"/>
<path fill="#40485E" opacity="1.000000" stroke="none" 
	d="
M265.858704,197.494720 
	C264.568634,198.721283 263.306976,199.540741 261.711456,200.334991 
	C262.239502,197.975479 263.101410,195.641190 264.552246,193.088104 
	C265.412018,192.912003 265.682892,192.954697 265.953796,192.997375 
	C265.931580,194.360794 265.909363,195.724213 265.858704,197.494720 
z"/>
<path fill="#404863" opacity="1.000000" stroke="none" 
	d="
M226.855820,280.326904 
	C227.003372,280.008636 227.462799,280.032806 227.691284,280.049316 
	C226.805466,282.620148 225.691162,285.174500 224.274139,287.895081 
	C224.883698,285.589294 225.795990,283.117218 226.855820,280.326904 
z"/>
<path fill="#3C4C5C" opacity="1.000000" stroke="none" 
	d="
M270.933411,184.936630 
	C269.843384,185.614044 268.753387,186.291473 267.337585,187.019928 
	C266.803284,185.608780 266.594757,184.146576 266.177338,182.364838 
	C265.968475,182.045288 266.052490,181.946945 266.414520,182.006897 
	C268.162170,183.023453 269.547791,183.980042 270.933411,184.936630 
z"/>
<path fill="#404863" opacity="1.000000" stroke="none" 
	d="
M235.673737,260.146271 
	C235.413025,261.767426 234.869904,263.576691 233.906403,265.688538 
	C233.486023,265.991150 233.033508,265.998871 233.033508,265.998871 
	C233.819458,264.110718 234.605408,262.222534 235.673737,260.146271 
z"/>
<path fill="#3C4C5C" opacity="1.000000" stroke="none" 
	d="
M266.086426,192.711533 
	C265.682892,192.954697 265.412018,192.912003 264.734924,192.804382 
	C264.787659,191.655853 265.246613,190.572281 265.858643,189.162292 
	C266.080841,190.032486 266.149963,191.229095 266.086426,192.711533 
z"/>
<path fill="#40485E" opacity="1.000000" stroke="none" 
	d="
M244.239594,244.864197 
	C243.742371,244.765610 243.450409,244.497971 242.928101,244.043304 
	C242.916992,243.319992 243.136215,242.783707 243.928986,242.089371 
	C244.722198,241.931244 244.941879,241.931183 245.161560,241.931107 
	C244.922653,242.852448 244.683762,243.773788 244.239594,244.864197 
z"/>
<path fill="#40485E" opacity="1.000000" stroke="none" 
	d="
M231.515366,269.625916 
	C231.303223,270.793396 230.805756,272.204681 230.003418,273.861267 
	C230.209045,272.694275 230.719543,271.281982 231.515366,269.625916 
z"/>
<path fill="#404863" opacity="1.000000" stroke="none" 
	d="
M223.540848,288.581116 
	C223.483566,289.436646 223.156662,290.499878 222.562347,291.767029 
	C222.620392,290.910248 222.945801,289.849518 223.540848,288.581116 
z"/>
<path fill="#40485E" opacity="1.000000" stroke="none" 
	d="
M232.870773,266.275543 
	C233.033508,265.998871 233.486023,265.991150 233.711533,265.986694 
	C233.481308,266.885498 233.025574,267.788788 232.295547,268.845642 
	C232.250198,268.183533 232.479126,267.367889 232.870773,266.275543 
z"/>
<path fill="#404863" opacity="1.000000" stroke="none" 
	d="
M237.543427,255.993088 
	C237.353989,257.037720 236.880753,258.266235 236.175873,259.733459 
	C236.382721,258.707062 236.821167,257.442047 237.543427,255.993088 
z"/>
<path fill="#404863" opacity="1.000000" stroke="none" 
	d="
M245.159775,241.641479 
	C244.941879,241.931183 244.722198,241.931244 244.173187,241.926208 
	C244.043427,241.026627 244.243011,240.132156 244.661499,238.969940 
	C244.932434,238.951447 244.984467,239.200714 245.123550,239.823929 
	C245.193069,240.582535 245.175522,240.967178 245.159775,241.641479 
z"/>
<path fill="#404863" opacity="1.000000" stroke="none" 
	d="
M246.641266,234.598557 
	C246.711639,235.003372 246.521591,235.654449 246.173920,236.602051 
	C246.137817,236.213974 246.259338,235.529404 246.641266,234.598557 
z"/>
<path fill="#424F4C" opacity="1.000000" stroke="none" 
	d="
M281.572052,151.586273 
	C290.890503,130.055420 300.206696,108.523613 309.531281,86.995415 
	C310.377106,85.042603 311.277161,83.113251 312.383331,80.909386 
	C312.614624,80.645767 312.852844,80.859810 313.109070,81.235733 
	C313.988739,82.103683 314.612152,82.595703 315.198914,83.463989 
	C315.077606,84.593109 314.992981,85.345985 314.908325,86.098854 
	C314.908325,86.098854 314.797607,86.235680 314.614594,86.492172 
	C314.334137,87.158554 314.236694,87.568428 314.139252,87.978302 
	C307.800842,102.193924 301.470001,116.412910 295.121033,130.623795 
	C291.569092,138.574158 287.987030,146.511063 284.098206,154.465271 
	C283.042633,153.513092 282.307343,152.549683 281.572052,151.586273 
z"/>
<path fill="#444F4F" opacity="1.000000" stroke="none" 
	d="
M281.592072,151.648727 
	C282.307343,152.549683 283.042633,153.513092 283.860107,154.727783 
	C280.873474,162.660965 277.939941,170.401413 274.656097,177.990265 
	C273.625519,180.371841 274.081848,181.350510 276.696472,182.090393 
	C277.182220,183.386841 277.316437,184.545120 277.245331,185.799622 
	C275.217987,185.510132 273.395935,185.124451 271.253662,184.837708 
	C269.547791,183.980042 268.162170,183.023453 266.456848,181.958008 
	C265.538361,180.569885 264.939575,179.290634 264.275879,177.660583 
	C264.626862,177.410812 265.042786,177.511841 265.934753,178.011627 
	C268.321259,180.306320 269.707397,179.713989 270.750916,177.495865 
	C270.750916,177.495865 270.727325,177.770615 270.924622,177.593582 
	C271.739227,175.914062 272.356537,174.411575 272.973846,172.909088 
	C273.473480,171.419952 273.973083,169.930832 274.892334,167.955215 
	C275.531555,167.119614 275.751190,166.770477 275.970856,166.421356 
	C275.970856,166.421356 275.577972,166.347961 275.907959,166.035889 
	C276.580109,164.487228 276.922302,163.250656 277.264526,162.014084 
	C278.275238,159.436615 279.285919,156.859146 280.752869,153.854370 
	C281.386841,152.849762 281.564545,152.272461 281.742279,151.695145 
	C281.742279,151.695145 281.612091,151.711166 281.592072,151.648727 
z"/>
<path fill="#E5D28B" opacity="1.000000" stroke="none" 
	d="
M315.187195,85.894562 
	C314.992981,85.345985 315.077606,84.593109 315.421936,83.366806 
	C315.960938,82.676506 316.091766,82.391495 316.074097,82.038330 
	C317.442719,81.483742 316.993225,77.014946 320.115540,80.524429 
	C318.584778,82.479736 317.025391,84.085007 315.187195,85.894562 
z"/>
<path fill="#E5D28B" opacity="1.000000" stroke="none" 
	d="
M321.781311,82.862000 
	C322.041046,83.435921 322.085541,83.869102 322.134583,84.629105 
	C321.831329,84.364471 321.523529,83.773010 321.156128,82.846497 
	C321.252991,82.581390 321.409515,82.651321 321.781311,82.862000 
z"/>
<path fill="#E5D28B" opacity="1.000000" stroke="none" 
	d="
M314.307007,87.725143 
	C314.236694,87.568428 314.334137,87.158554 314.682861,86.547729 
	C314.781006,86.721855 314.627869,87.096916 314.307007,87.725143 
z"/>
<path fill="#3C4C5C" opacity="1.000000" stroke="none" 
	d="
M277.109009,162.341278 
	C276.922302,163.250656 276.580109,164.487228 275.944275,165.839355 
	C276.084900,164.859436 276.519226,163.763947 277.109009,162.341278 
z"/>
<path fill="#3C4C5C" opacity="1.000000" stroke="none" 
	d="
M272.701538,173.116608 
	C272.356537,174.411575 271.739227,175.914062 270.787292,177.581238 
	C271.111511,176.271988 271.770355,174.798050 272.701538,173.116608 
z"/>
<path fill="#3C4C5C" opacity="1.000000" stroke="none" 
	d="
M270.456848,177.638580 
	C269.707397,179.713989 268.321259,180.306320 266.219116,178.163025 
	C267.405884,177.870865 268.784302,177.826065 270.456848,177.638580 
z"/>
<path fill="#424F4C" opacity="1.000000" stroke="none" 
	d="
M281.494568,151.895172 
	C281.564545,152.272461 281.386841,152.849762 281.054352,153.684448 
	C281.015350,153.326294 281.131134,152.710754 281.494568,151.895172 
z"/>
<path fill="#3C4C5C" opacity="1.000000" stroke="none" 
	d="
M275.655518,166.554276 
	C275.751190,166.770477 275.531555,167.119614 275.143616,167.730072 
	C275.096924,167.556671 275.218536,167.121948 275.655518,166.554276 
z"/>
<path fill="#434A53" opacity="1.000000" stroke="none" 
	d="
M315.783569,81.914757 
	C316.091766,82.391495 315.960938,82.676506 315.458618,82.990547 
	C314.612152,82.595703 313.988739,82.103683 313.227661,81.343353 
	C313.891022,81.313766 314.692017,81.552475 315.783569,81.914757 
z"/>
</svg>